<mxfile host="app.diagrams.net" modified="2023-04-24T05:22:58.744Z" agent="Mozilla/5.0 (Windows NT 10.0; WOW64) AppleWebKit/537.36 (KHTML, like Gecko) Chrome/102.0.0.0 Safari/537.36" version="21.2.1" etag="Yd5-BUejp0Ey3j04coXg" type="github">
  <diagram name="第 1 页" id="zr5HzDaP4AVjrBTudZek">
    <mxGraphModel>
      <root>
        <mxCell id="0" />
        <mxCell id="1" parent="0" />
      </root>
    </mxGraphModel>
  </diagram>
</mxfile>
